<svg width="24" height="24" viewBox="0 0 24 24" fill="none" xmlns="http://www.w3.org/2000/svg">
<circle cx="12" cy="12" r="12" fill="url(#paint0_linear_71_1427)"/>
<path d="M13.0522 11.8811C13.2139 11.9782 13.4017 12.0339 13.602 12.0339C14.2089 12.0339 14.7007 11.5249 14.7007 10.8968C14.7007 10.2688 14.2089 9.75977 13.602 9.75977C12.9951 9.75977 12.519 10.2532 12.5041 10.8676H11.064L10.4641 9.79271L9.8647 10.8676H8.39019C8.37513 10.2532 7.88964 9.75977 7.29232 9.75977C6.69501 9.75977 6.1936 10.269 6.1936 10.8968C6.1936 11.5247 6.68546 12.0339 7.29232 12.0339C7.5043 12.0339 7.70206 11.9718 7.8699 11.8642L8.58965 13.1548L7.983 14.2427L9.19545 14.2411L9.89356 15.493C9.57824 15.6929 9.36775 16.0526 9.36775 16.4635C9.36775 17.0915 9.85961 17.6005 10.4665 17.6005C11.0733 17.6005 11.5652 17.0915 11.5652 16.4635C11.5652 16.0508 11.3528 15.6894 11.0349 15.4902L11.7349 14.238L12.9442 14.2365L12.3405 13.1548L13.0524 11.8811H13.0522ZM11.4438 12.6178L11.144 13.1541L11.151 13.1666H11.137L10.8382 13.7011L10.4637 14.3709L10.0924 13.7051L9.79298 13.1684H9.77749L9.78513 13.1545L9.48637 12.6187L9.10761 11.9395H10.4627L10.4644 11.9366L10.466 11.9395H11.8228L11.4436 12.6178H11.4438Z" fill="#151A26"/>
<path d="M12.9452 5.4322L7.94897 5.41934L10.4434 9.75977L12.9452 5.4322Z" fill="#151A26"/>
<path d="M12.9453 14.2402L15.3723 18.5806L17.8065 14.2531L12.9453 14.2402Z" fill="#151A26"/>
<defs>
<linearGradient id="paint0_linear_71_1427" x1="0.37795" y1="7.95" x2="24.6417" y2="9.41516" gradientUnits="userSpaceOnUse">
<stop stop-color="#DADADA"/>
<stop offset="1" stop-color="white"/>
</linearGradient>
</defs>
</svg>
