<svg width="24" height="24" viewBox="0 0 24 24" fill="none" xmlns="http://www.w3.org/2000/svg">
<circle cx="12" cy="12" r="12" fill="#151A26"/>
<path d="M13.0522 11.9033C13.2139 12.0007 13.4017 12.0567 13.602 12.0567C14.2089 12.0567 14.7007 11.5459 14.7007 10.9157C14.7007 10.2855 14.2089 9.77469 13.602 9.77469C12.9951 9.77469 12.519 10.2698 12.5041 10.8864H11.064L10.4641 9.80774L9.8647 10.8864H8.39019C8.37513 10.2698 7.88964 9.77469 7.29232 9.77469C6.69501 9.77469 6.1936 10.2857 6.1936 10.9157C6.1936 11.5457 6.68546 12.0567 7.29232 12.0567C7.5043 12.0567 7.70206 11.9943 7.8699 11.8863L8.58965 13.1813L7.983 14.273L9.19546 14.2714L9.89356 15.5276C9.57825 15.7282 9.36775 16.0891 9.36775 16.5014C9.36775 17.1316 9.85961 17.6424 10.4665 17.6424C11.0733 17.6424 11.5652 17.1316 11.5652 16.5014C11.5652 16.0873 11.3528 15.7246 11.0349 15.5248L11.7349 14.2683L12.9442 14.2668L12.3405 13.1813L13.0524 11.9033H13.0522ZM11.4438 12.6426L11.144 13.1807L11.151 13.1932H11.137L10.8382 13.7296L10.4637 14.4016L10.0924 13.7335L9.79298 13.195H9.77749L9.78513 13.1811L9.48637 12.6435L9.10761 11.9619H10.4627L10.4644 11.959L10.466 11.9619H11.8228L11.4436 12.6426H11.4438Z" fill="#1AE19D"/>
<path d="M12.9452 5.43226L7.94897 5.41936L10.4434 9.77468L12.9452 5.43226Z" fill="#1AE19D"/>
<path d="M12.9453 14.2253L15.3723 18.5806L17.8065 14.2382L12.9453 14.2253Z" fill="#1AE19D"/>
</svg>
