<svg width="857" height="1123" viewBox="0 0 857 1123" fill="none" xmlns="http://www.w3.org/2000/svg">
<g clip-path="url(#clip0_41_2)">
<rect width="857" height="1123" fill="white"/>
<rect width="872" height="618" transform="translate(-15 710)" fill="#F5F5FF"/>
<rect x="-15" y="710" width="872" height="618" fill="#F5F5FF"/>
<path d="M759.928 934.717L822.022 827.058L792.635 776.48H668.376L740.578 651.769C720.869 640.26 699.978 630.909 678.267 623.879L580 792.954L609.675 843.965H733.935L671.841 951.696L701.228 1002.78H891.264C896.603 980.471 899.532 957.652 900 934.717H759.928Z" fill="white"/>
<path d="M550.133 1194.97H609.277L671.525 1087.68L739.262 1204.69C759.05 1193.34 777.57 1179.92 794.505 1164.65L700.627 1002.78H641.773L579.524 1110.14L517.42 1003.07H458.494L364.615 1164.94C381.524 1180.24 400.047 1193.66 419.859 1204.98L487.668 1087.89L550.133 1194.97Z" fill="white"/>
<path d="M488.22 951.521L426.143 843.725H550.442L580 792.683L481.933 623C460.203 630.035 439.293 639.391 419.566 650.907L491.834 775.693H367.317L337.832 826.301L399.982 934.169H260C260.432 957.288 263.364 980.292 268.744 1002.78H458.807L488.22 951.521Z" fill="white"/>
<g clip-path="url(#clip1_41_2)">
<mask id="mask0_41_2" style="mask-type:luminance" maskUnits="userSpaceOnUse" x="40" y="60" width="222" height="74">
<path d="M262 60H40V134H262V60Z" fill="white"/>
</mask>
<g mask="url(#mask0_41_2)">
<path d="M122.889 104.687L118.005 95.2451V109.916H112.494V84.0936H117.989L125.324 98.5791L132.695 84.0936H138.151V109.932H132.695V95.2483L127.756 104.69L122.889 104.687Z" fill="black"/>
<path d="M156.396 84.0936L166.489 109.932H160.821L158.757 104.847H148.768L146.74 109.932H141.062L151.155 84.0936H156.396ZM153.792 91.5399L150.582 99.9791H156.998L153.792 91.5399Z" fill="black"/>
<path d="M176.305 99.2303C171.252 98.3837 168.165 95.766 168.165 91.4877C168.165 89.0914 169.087 87.2127 170.968 85.8127C172.85 84.4127 175.097 83.6736 177.714 83.6736C181.732 83.6736 185.049 85.0378 187.667 87.8021L183.972 91.6733C182.018 89.6807 179.84 88.6877 177.408 88.6877C175.087 88.6877 173.612 89.7198 173.612 91.2305C173.612 92.5947 174.83 93.5096 177.297 93.959L179.84 94.3627C185.629 95.2874 188.543 97.9767 188.543 102.437C188.566 103.548 188.32 104.648 187.826 105.644C187.331 106.639 186.603 107.499 185.704 108.151C183.822 109.591 181.354 110.326 178.258 110.326C173.723 110.326 169.852 108.298 167.531 105.387L171.291 101.591C173.205 104.059 175.64 105.312 178.587 105.312C181.39 105.312 183.086 104.134 183.086 102.512C183.086 101.148 181.868 100.233 179.472 99.7838L176.305 99.2303Z" fill="black"/>
<path d="M200.042 99.2303C194.992 98.3837 191.902 95.766 191.902 91.4877C191.902 89.0914 192.824 87.2127 194.702 85.8127C196.581 84.4127 198.834 83.6736 201.448 83.6736C205.469 83.6736 208.786 85.0378 211.404 87.8021L207.709 91.6733C205.755 89.6807 203.58 88.6877 201.148 88.6877C198.827 88.6877 197.352 89.7198 197.352 91.2305C197.352 92.5947 198.567 93.5096 201.038 93.959L203.58 94.3627C209.369 95.2874 212.28 97.9767 212.28 102.437C212.304 103.548 212.058 104.649 211.564 105.644C211.069 106.639 210.341 107.5 209.441 108.151C207.562 109.591 205.091 110.326 201.995 110.326C197.463 110.326 193.592 108.298 191.268 105.387L195.028 101.591C196.945 104.059 199.377 105.312 202.327 105.312C205.13 105.312 206.826 104.134 206.826 102.512C206.826 101.148 205.609 100.233 203.213 99.7838L200.042 99.2303Z" fill="black"/>
<path d="M228.867 84.0936L238.96 109.932H233.292L231.228 104.847H221.239L219.211 109.932H213.527L223.619 84.0936H228.867ZM226.263 91.5399L223.056 99.9791H229.473L226.263 91.5399Z" fill="black"/>
<path d="M81.311 115.282C91.4071 115.282 99.5915 107.097 99.5915 97C99.5915 86.9032 91.4071 78.7181 81.311 78.7181C71.215 78.7181 63.0305 86.9032 63.0305 97C63.0305 107.097 71.215 115.282 81.311 115.282Z" fill="#FF0000"/>
<path d="M89.4241 97.2996L92.224 92.4483L90.8989 90.1692H85.296L88.5516 84.5495C87.6629 84.0309 86.7209 83.6095 85.742 83.2927L81.311 90.9115L82.6491 93.2102H88.2521L85.4522 98.0647L86.7773 100.367H95.3462C95.5869 99.3614 95.719 98.3331 95.7401 97.2996H89.4241Z" fill="white"/>
<path d="M79.9827 109.05H82.6491L85.4554 104.199L88.5092 109.49C89.4014 108.976 90.2363 108.37 90.9998 107.679L86.7675 100.36H84.1141L81.3077 105.215L78.5079 100.373H75.8513L71.6189 107.692C72.3812 108.384 73.2163 108.991 74.1095 109.503L77.1665 104.209L79.9827 109.05Z" fill="white"/>
<path d="M77.1764 98.0647L74.3798 93.2101H79.9795L81.3111 90.9115L76.8931 83.2699C75.9142 83.5867 74.9722 84.0081 74.0835 84.5267L77.3392 90.1463H71.7297L70.4014 92.4255L73.2012 97.2833H66.895C66.9145 98.3244 67.0466 99.3604 67.289 100.373H75.8513L77.1764 98.0647Z" fill="white"/>
</g>
</g>
</g>
<defs>
<clipPath id="clip0_41_2">
<rect width="857" height="1123" fill="white"/>
</clipPath>
<clipPath id="clip1_41_2">
<rect width="222" height="74" fill="white" transform="translate(40 60)"/>
</clipPath>
</defs>
</svg>
