<svg width="111" height="37" viewBox="0 0 111 37" fill="none" xmlns="http://www.w3.org/2000/svg">
<g clip-path="url(#clip0_27_41)">
<mask id="mask0_27_41" style="mask-type:luminance" maskUnits="userSpaceOnUse" x="0" y="0" width="111" height="37">
<path d="M111 0H0V37H111V0Z" fill="white"/>
</mask>
<g mask="url(#mask0_27_41)">
<path d="M41.4445 22.3436L39.0027 17.6226V24.9581H36.2468V12.0469H38.9946L42.6621 19.2896L46.3475 12.0469H49.0757V24.9663H46.3475V17.6242L43.8781 22.3453L41.4445 22.3436Z" fill="black"/>
<path d="M58.1981 12.0469L63.2443 24.9663H60.4103L59.3783 22.4234H54.3841L53.3699 24.9663H50.531L55.5773 12.0469H58.1981ZM56.8958 15.77L55.2908 19.9896H58.4992L56.8958 15.77Z" fill="black"/>
<path d="M68.1521 19.6152C65.6257 19.192 64.0826 17.8831 64.0826 15.744C64.0826 14.5458 64.5432 13.6065 65.4841 12.9065C66.425 12.2065 67.5482 11.8369 68.857 11.8369C70.8657 11.8369 72.5245 12.519 73.8333 13.9012L71.9857 15.8368C71.009 14.8405 69.92 14.344 68.704 14.344C67.5433 14.344 66.8059 14.86 66.8059 15.6154C66.8059 16.2975 67.4147 16.7549 68.6486 16.9796L69.92 17.1815C72.8142 17.6438 74.2711 18.9885 74.2711 21.2188C74.283 21.7743 74.16 22.3243 73.9128 22.8219C73.6656 23.3195 73.3015 23.7497 72.8517 24.0758C71.9108 24.7954 70.6769 25.1633 69.1288 25.1633C66.8613 25.1633 64.9258 24.1491 63.7651 22.6937L65.6453 20.7955C66.6024 22.0295 67.8201 22.6563 69.2932 22.6563C70.6948 22.6563 71.5429 22.0669 71.5429 21.2562C71.5429 20.5741 70.9341 20.1167 69.736 19.892L68.1521 19.6152Z" fill="black"/>
<path d="M80.0208 19.6152C77.496 19.192 75.9512 17.8831 75.9512 15.744C75.9512 14.5458 76.4119 13.6065 77.3511 12.9065C78.2904 12.2065 79.4169 11.8369 80.724 11.8369C82.7344 11.8369 84.3931 12.519 85.7019 13.9012L83.8543 15.8368C82.8776 14.8405 81.7902 14.344 80.5742 14.344C79.4136 14.344 78.6762 14.86 78.6762 15.6154C78.6762 16.2975 79.2834 16.7549 80.5189 16.9796L81.7902 17.1815C84.6845 17.6438 86.1398 18.9885 86.1398 21.2188C86.1519 21.7743 86.0291 22.3245 85.7818 22.8221C85.5346 23.3197 85.1704 23.7499 84.7203 24.0758C83.7811 24.7954 82.5455 25.1633 80.9975 25.1633C78.7315 25.1633 76.7961 24.1491 75.6338 22.6937L77.5139 20.7955C78.4727 22.0295 79.6887 22.6563 81.1635 22.6563C82.5651 22.6563 83.4132 22.0669 83.4132 21.2562C83.4132 20.5741 82.8044 20.1167 81.6063 19.892L80.0208 19.6152Z" fill="black"/>
<path d="M94.4335 12.0469L99.4798 24.9663H96.6457L95.6137 22.4234H90.6195L89.6054 24.9663H86.7632L91.8095 12.0469H94.4335ZM93.1312 15.77L91.5278 19.9896H94.7363L93.1312 15.77Z" fill="black"/>
<path d="M20.6554 27.641C25.7034 27.641 29.7957 23.5485 29.7957 18.5001C29.7957 13.4517 25.7034 9.35913 20.6554 9.35913C15.6074 9.35913 11.5151 13.4517 11.5151 18.5001C11.5151 23.5485 15.6074 27.641 20.6554 27.641Z" fill="#FF0000"/>
<path d="M24.7118 18.6498L26.1118 16.2242L25.4492 15.0846H22.6477L24.2756 12.2748C23.8312 12.0154 23.3602 11.8048 22.8707 11.6464L20.6553 15.4558L21.3243 16.6051H24.1258L22.7259 19.0324L23.3884 20.1833H27.6728C27.7932 19.6807 27.8593 19.1665 27.8698 18.6498H24.7118Z" fill="white"/>
<path d="M19.9912 24.525H21.3244L22.7276 22.0994L24.2545 24.7448C24.7006 24.4882 25.118 24.1848 25.4998 23.8397L23.3836 20.1801H22.0569L20.6537 22.6073L19.2538 20.1866H17.9255L15.8093 23.8462C16.1905 24.192 16.608 24.4955 17.0546 24.7513L18.5831 22.1043L19.9912 24.525Z" fill="white"/>
<path d="M18.5879 19.0324L17.1896 16.6051H19.9895L20.6553 15.4558L18.4463 11.635C17.9568 11.7934 17.4859 12.0041 17.0415 12.2634L18.6693 15.0732H15.8646L15.2004 16.2128L16.6004 18.6417H13.4473C13.457 19.1623 13.523 19.6803 13.6442 20.1866H17.9254L18.5879 19.0324Z" fill="white"/>
</g>
</g>
<defs>
<clipPath id="clip0_27_41">
<rect width="111" height="37" fill="white"/>
</clipPath>
</defs>
</svg>
